<?xml version="1.0" ?><svg height="48" viewBox="0 0 48 48" width="48" xmlns="http://www.w3.org/2000/svg"><defs><style>.cls-1{fill:#f1f2f2;}.cls-2{fill:#49aaee;}.cls-3{fill:none;stroke:#474c54;stroke-linecap:round;stroke-linejoin:round;stroke-width:2px;}</style></defs><title/><g data-name="11-Trello" id="_11-Trello"><g data-name="&lt;Group&gt;" id="_Group_"><rect class="cls-1" height="17" rx="2" ry="2" width="12" x="22" y="6"/><rect class="cls-1" height="30" rx="2" ry="2" width="12" x="6" y="6"/><path class="cls-2" d="M47,7V41a6,6,0,0,1-6,6H7a6,6,0,0,1-6-6V7A6,6,0,0,1,7,1H41A6,6,0,0,1,47,7ZM34,21V8a2.006,2.006,0,0,0-2-2H24a2.006,2.006,0,0,0-2,2V21a2.006,2.006,0,0,0,2,2h8A2.006,2.006,0,0,0,34,21ZM18,34V8a2.006,2.006,0,0,0-2-2H8A2.006,2.006,0,0,0,6,8V34a2.006,2.006,0,0,0,2,2h8A2.006,2.006,0,0,0,18,34Z"/><rect class="cls-3" height="46" rx="6" ry="6" width="46" x="1" y="1"/><rect class="cls-3" height="30" rx="2" ry="2" width="12" x="6" y="6"/><rect class="cls-3" height="17" rx="2" ry="2" width="12" x="22" y="6"/></g></g></svg>