<svg width="512" height="512" xmlns="http://www.w3.org/2000/svg">

 <g>
  <title>background</title>
  <rect fill="none" id="canvas_background" height="402" width="582" y="-1" x="-1"/>
 </g>
 <g>
  <title>Layer 1</title>
  <path id="svg_4" fill="#007AFF" d="m256.001007,135.033997c-127.002991,0 -229.999996,54.120987 -229.999996,120.964996s102.997005,120.96701 229.999996,120.96701c127.002991,0 229.998016,-54.123016 229.998016,-120.96701s-102.995026,-120.964996 -229.998016,-120.964996z"/>
  <path id="svg_5" fill="#005CBF" d="m256.001007,386.966003c-63.026001,0 -122.434998,-12.985992 -167.279999,-36.56601c-46.893997,-24.656006 -72.719997,-58.182007 -72.719997,-94.399994c0,-36.218002 25.826,-69.744003 72.719997,-94.399994c44.846008,-23.57901 104.253006,-36.565002 167.279999,-36.565002c63.026001,0 122.43399,12.985992 167.278992,36.565002c46.894012,24.655991 72.719025,58.181992 72.719025,94.399994c0,36.218994 -25.825012,69.743988 -72.719025,94.399994c-44.845001,23.57901 -104.252991,36.56601 -167.278992,36.56601zm0,-241.932007c-59.843002,0 -115.944992,12.169006 -157.973007,34.266998c-39.999001,21.031006 -62.027,48.270004 -62.027,76.697998c0,28.428986 22.028,55.666992 62.028,76.697998c42.027,22.098999 98.129005,34.269012 157.972008,34.269012s115.944,-12.170013 157.971985,-34.268005c39.998016,-21.032013 62.026001,-48.270996 62.026001,-76.699005c0,-28.428009 -22.027985,-55.667007 -62.026001,-76.697998c-42.027985,-22.097 -98.128998,-34.266998 -157.971985,-34.266998z"/>
  <path id="svg_7" fill="#FFFFFF" d="m182.063004,246.042999c-5.677002,29.109009 -25.731003,26.089996 -50.384003,26.089996l9.847,-50.743988c27.313004,0.000992 45.856003,-2.946014 40.537003,24.653992l0,0zm-86.824005,77.480011l26.377998,0l6.254005,-32.199005c29.539993,0 47.867996,2.157013 64.830002,-13.727997c18.759003,-17.251007 23.645996,-47.940994 10.278,-63.321991c-6.970001,-8.050003 -18.184006,-12.003006 -33.421005,-12.003006l-50.816002,0l-23.502998,121.251999zm133.470001,-153.52301l26.235001,0l-6.253006,32.199005c22.639999,0 43.628006,-1.653 53.763016,7.690994c10.638,9.774994 5.535004,22.281006 -5.966003,81.291l-26.593994,0c11.069,-57.067993 13.153992,-61.811996 9.127991,-66.125c-3.880005,-4.167999 -12.722015,-3.306 -34.069,-3.306l-13.513,69.431l-26.235001,0l23.503998,-121.181l0,0zm159.491989,76.042999c-5.751007,29.541992 -26.378998,26.089996 -50.38501,26.089996l9.847015,-50.743988c27.455994,0.000992 45.856995,-2.946014 40.537994,24.653992zm-86.823975,77.480011l26.449005,0l6.253998,-32.199005c31.048981,0 48.22699,1.79599 64.830017,-13.727997c18.758972,-17.251007 23.645996,-47.940994 10.278992,-63.321991c-6.973999,-8.050003 -18.186005,-12.003006 -33.423004,-12.003006l-50.81601,0l-23.572998,121.251999z"/>
 </g>
</svg>